<svg width="788" height="1894" viewBox="0 0 788 1894" class="keymap" xmlns="http://www.w3.org/2000/svg" xmlns:xlink="http://www.w3.org/1999/xlink">
<style>/* inherit to force styles through use tags */
svg path {
    fill: inherit;
}

/* font and background color specifications */
svg.keymap {
    font-family: SFMono-Regular,Consolas,Liberation Mono,Menlo,monospace;
    font-size: 14px;
    font-kerning: normal;
    text-rendering: optimizeLegibility;
    fill: #24292e;
}

/* default key styling */
rect.key {
    fill: #f6f8fa;
}

rect.key, rect.combo {
    stroke: #c9cccf;
    stroke-width: 1;
}

/* default key side styling, only used is draw_key_sides is set */
rect.side {
    filter: brightness(90%);
}

/* color accent for combo boxes */
rect.combo, rect.combo-separate {
    fill: #cdf;
}

/* color accent for held keys */
rect.held, rect.combo.held {
    fill: #fdd;
}

/* color accent for ghost (optional) keys */
rect.ghost, rect.combo.ghost {
    stroke-dasharray: 4, 4;
    stroke-width: 2;
}

text {
    text-anchor: middle;
    dominant-baseline: middle;
}

/* styling for layer labels */
text.label {
    font-weight: bold;
    text-anchor: start;
    stroke: white;
    stroke-width: 4;
    paint-order: stroke;
}

/* styling for optional footer */
text.footer {
    text-anchor: end;
    dominant-baseline: auto;
    stroke: white;
    stroke-width: 4;
    paint-order: stroke;
}

/* styling for combo tap, and key hold/shifted label text */
text.combo, text.hold, text.shifted {
    font-size: 11px;
}

text.hold {
    text-anchor: middle;
    dominant-baseline: auto;
}

text.shifted {
    text-anchor: middle;
    dominant-baseline: hanging;
}

text.layer-activator {
    text-decoration: underline;
}

/* styling for hold/shifted label text in combo box */
text.combo.hold, text.combo.shifted {
    font-size: 8px;
}

/* lighter symbol for transparent keys */
text.trans {
    fill: #7b7e81;
}

/* styling for combo dendrons */
path.combo {
    stroke-width: 1;
    stroke: gray;
    fill: none;
}

/* Start Tabler Icons Cleanup */
/* cannot use height/width with glyphs */
.icon-tabler > path {
    fill: inherit;
    stroke: inherit;
    stroke-width: 2;
}
/* hide tabler's default box */
.icon-tabler > path[stroke="none"][fill="none"] {
    visibility: hidden;
}
/* End Tabler Icons Cleanup */

rect.color-group-1 {fill: #EDDEA4;}
rect.color-group-2 {fill: #B5E2FA;}
rect.color-group-3 {fill: #F7A072;}
rect.color-group-4 {fill: #B24C63;}
text.color-group-4 { stroke: none; fill: white; stroke-width: 1;}
rect.color-group-5 {fill: #FFCAE9;}
rect.color-group-6 {fill: #202C59;}
text.color-group-6 { stroke: none; fill: white; stroke-width: 1;}
</style>
<g transform="translate(30, 0)" class="layer-QWERTY">
<text x="0" y="28" class="label" id="QWERTY">QWERTY:</text>
<g transform="translate(0, 56)">
<g transform="translate(28, 70)" class="key color-group-2 keypos-0">
<rect rx="6" ry="6" x="-26" y="-26" width="52" height="52" class="key color-group-2"/>
<text x="0" y="0" class="key color-group-2 tap">Q</text>
</g>
<g transform="translate(84, 56)" class="key color-group-2 keypos-1">
<rect rx="6" ry="6" x="-26" y="-26" width="52" height="52" class="key color-group-2"/>
<text x="0" y="0" class="key color-group-2 tap">W</text>
</g>
<g transform="translate(140, 28)" class="key color-group-2 keypos-2">
<rect rx="6" ry="6" x="-26" y="-26" width="52" height="52" class="key color-group-2"/>
<text x="0" y="0" class="key color-group-2 tap">E</text>
</g>
<g transform="translate(196, 42)" class="key color-group-2 keypos-3">
<rect rx="6" ry="6" x="-26" y="-26" width="52" height="52" class="key color-group-2"/>
<text x="0" y="0" class="key color-group-2 tap">R</text>
</g>
<g transform="translate(252, 48)" class="key color-group-2 keypos-4">
<rect rx="6" ry="6" x="-26" y="-26" width="52" height="52" class="key color-group-2"/>
<text x="0" y="0" class="key color-group-2 tap">T</text>
</g>
<g transform="translate(476, 48)" class="key color-group-2 keypos-5">
<rect rx="6" ry="6" x="-26" y="-26" width="52" height="52" class="key color-group-2"/>
<text x="0" y="0" class="key color-group-2 tap">Y</text>
</g>
<g transform="translate(532, 42)" class="key color-group-2 keypos-6">
<rect rx="6" ry="6" x="-26" y="-26" width="52" height="52" class="key color-group-2"/>
<text x="0" y="0" class="key color-group-2 tap">U</text>
</g>
<g transform="translate(588, 28)" class="key color-group-2 keypos-7">
<rect rx="6" ry="6" x="-26" y="-26" width="52" height="52" class="key color-group-2"/>
<text x="0" y="0" class="key color-group-2 tap">I</text>
</g>
<g transform="translate(644, 56)" class="key color-group-2 keypos-8">
<rect rx="6" ry="6" x="-26" y="-26" width="52" height="52" class="key color-group-2"/>
<text x="0" y="0" class="key color-group-2 tap">O</text>
</g>
<g transform="translate(700, 70)" class="key color-group-2 keypos-9">
<rect rx="6" ry="6" x="-26" y="-26" width="52" height="52" class="key color-group-2"/>
<text x="0" y="0" class="key color-group-2 tap">P</text>
</g>
<g transform="translate(28, 126)" class="key color-group-2 keypos-10">
<rect rx="6" ry="6" x="-26" y="-26" width="52" height="52" class="key color-group-2"/>
<text x="0" y="0" class="key color-group-2 tap">A</text>
</g>
<g transform="translate(84, 112)" class="key color-group-2 keypos-11">
<rect rx="6" ry="6" x="-26" y="-26" width="52" height="52" class="key color-group-2"/>
<text x="0" y="0" class="key color-group-2 tap">S</text>
</g>
<g transform="translate(140, 84)" class="key color-group-2 keypos-12">
<rect rx="6" ry="6" x="-26" y="-26" width="52" height="52" class="key color-group-2"/>
<text x="0" y="0" class="key color-group-2 tap">D</text>
</g>
<g transform="translate(196, 98)" class="key color-group-2 keypos-13">
<rect rx="6" ry="6" x="-26" y="-26" width="52" height="52" class="key color-group-2"/>
<text x="0" y="0" class="key color-group-2 tap">F</text>
</g>
<g transform="translate(252, 104)" class="key color-group-2 keypos-14">
<rect rx="6" ry="6" x="-26" y="-26" width="52" height="52" class="key color-group-2"/>
<text x="0" y="0" class="key color-group-2 tap">G</text>
</g>
<g transform="translate(476, 104)" class="key color-group-2 keypos-15">
<rect rx="6" ry="6" x="-26" y="-26" width="52" height="52" class="key color-group-2"/>
<text x="0" y="0" class="key color-group-2 tap">H</text>
</g>
<g transform="translate(532, 98)" class="key color-group-2 keypos-16">
<rect rx="6" ry="6" x="-26" y="-26" width="52" height="52" class="key color-group-2"/>
<text x="0" y="0" class="key color-group-2 tap">J</text>
</g>
<g transform="translate(588, 84)" class="key color-group-2 keypos-17">
<rect rx="6" ry="6" x="-26" y="-26" width="52" height="52" class="key color-group-2"/>
<text x="0" y="0" class="key color-group-2 tap">K</text>
</g>
<g transform="translate(644, 112)" class="key color-group-2 keypos-18">
<rect rx="6" ry="6" x="-26" y="-26" width="52" height="52" class="key color-group-2"/>
<text x="0" y="0" class="key color-group-2 tap">L</text>
</g>
<g transform="translate(700, 126)" class="key color-group-1 keypos-19">
<rect rx="6" ry="6" x="-26" y="-26" width="52" height="52" class="key color-group-1"/>
<text x="0" y="0" class="key color-group-1 tap">&#x27;</text>
</g>
<g transform="translate(28, 182)" class="key color-group-3 keypos-20">
<rect rx="6" ry="6" x="-26" y="-26" width="52" height="52" class="key color-group-3"/>
<text x="0" y="0" class="key color-group-3 tap">
<tspan x="0" dy="-0.6em">Meh+</tspan><tspan x="0" dy="1.2em">Z</tspan>
</text>
</g>
<g transform="translate(84, 168)" class="key keypos-21">
<rect rx="6" ry="6" x="-26" y="-26" width="52" height="52" class="key"/>
<text x="0" y="0" class="key tap">X</text>
<text x="0" y="24" class="key hold">LGUI</text>
</g>
<g transform="translate(140, 140)" class="key keypos-22">
<rect rx="6" ry="6" x="-26" y="-26" width="52" height="52" class="key"/>
<text x="0" y="0" class="key tap">C</text>
<text x="0" y="24" class="key hold">LALT</text>
</g>
<g transform="translate(196, 154)" class="key color-group-2 keypos-23">
<rect rx="6" ry="6" x="-26" y="-26" width="52" height="52" class="key color-group-2"/>
<text x="0" y="0" class="key color-group-2 tap">V</text>
</g>
<g transform="translate(252, 160)" class="key color-group-2 keypos-24">
<rect rx="6" ry="6" x="-26" y="-26" width="52" height="52" class="key color-group-2"/>
<text x="0" y="0" class="key color-group-2 tap">B</text>
</g>
<g transform="translate(476, 160)" class="key color-group-2 keypos-25">
<rect rx="6" ry="6" x="-26" y="-26" width="52" height="52" class="key color-group-2"/>
<text x="0" y="0" class="key color-group-2 tap">N</text>
</g>
<g transform="translate(532, 154)" class="key color-group-2 keypos-26">
<rect rx="6" ry="6" x="-26" y="-26" width="52" height="52" class="key color-group-2"/>
<text x="0" y="0" class="key color-group-2 tap">M</text>
</g>
<g transform="translate(588, 140)" class="key color-group-1 keypos-27">
<rect rx="6" ry="6" x="-26" y="-26" width="52" height="52" class="key color-group-1"/>
<text x="0" y="0" class="key color-group-1 tap">,</text>
</g>
<g transform="translate(644, 168)" class="key color-group-1 keypos-28">
<rect rx="6" ry="6" x="-26" y="-26" width="52" height="52" class="key color-group-1"/>
<text x="0" y="0" class="key color-group-1 tap">.</text>
</g>
<g transform="translate(700, 182)" class="key color-group-1 keypos-29">
<rect rx="6" ry="6" x="-26" y="-26" width="52" height="52" class="key color-group-1"/>
<text x="0" y="0" class="key color-group-1 tap">/</text>
</g>
<g transform="translate(196, 210)" class="key color-group-3 keypos-30">
<rect rx="6" ry="6" x="-26" y="-26" width="52" height="52" class="key color-group-3"/>
<text x="0" y="0" class="key color-group-3 tap">LCTL</text>
</g>
<g transform="translate(252, 216)" class="key color-group-3 keypos-31">
<rect rx="6" ry="6" x="-26" y="-26" width="52" height="52" class="key color-group-3"/>
<text x="0" y="0" class="key color-group-3 tap"><tspan style="font-size: 64%">OSL(SYMBOL…</tspan></text>
</g>
<g transform="translate(308, 222)" class="key color-group-3 keypos-32">
<rect rx="6" ry="6" x="-26" y="-26" width="52" height="52" class="key color-group-3"/>
<text x="0" y="0" class="key color-group-3 tap">SPC</text>
</g>
<g transform="translate(420, 222)" class="key keypos-33">
<rect rx="6" ry="6" x="-26" y="-26" width="52" height="52" class="key"/>
<text x="0" y="0" class="key tap">RSFT</text>
<text x="0" y="24" class="key hold">sticky</text>
</g>
<g transform="translate(476, 216)" class="key color-group-3 keypos-34">
<rect rx="6" ry="6" x="-26" y="-26" width="52" height="52" class="key color-group-3"/>
<text x="0" y="0" class="key color-group-3 tap"><tspan style="font-size: 64%">MO(COMMAND…</tspan></text>
</g>
<g transform="translate(532, 210)" class="key color-group-3 keypos-35">
<rect rx="6" ry="6" x="-26" y="-26" width="52" height="52" class="key color-group-3"/>
<text x="0" y="0" class="key color-group-3 tap"><tspan style="font-size: 64%">LT(NUMPAD,…</tspan></text>
</g>
</g>
</g>
<g transform="translate(30, 306)" class="layer-COMMANDS">
<text x="0" y="28" class="label" id="COMMANDS">COMMANDS:</text>
<g transform="translate(0, 56)">
<g transform="translate(28, 70)" class="key color-group-4 keypos-0">
<rect rx="6" ry="6" x="-26" y="-26" width="52" height="52" class="key color-group-4"/>
<text x="0" y="0" class="key color-group-4 tap">`</text>
</g>
<g transform="translate(84, 56)" class="key color-group-4 keypos-1">
<rect rx="6" ry="6" x="-26" y="-26" width="52" height="52" class="key color-group-4"/>
<text x="0" y="0" class="key color-group-4 tap">&lt;</text>
</g>
<g transform="translate(140, 28)" class="key color-group-4 keypos-2">
<rect rx="6" ry="6" x="-26" y="-26" width="52" height="52" class="key color-group-4"/>
<text x="0" y="0" class="key color-group-4 tap">&gt;</text>
</g>
<g transform="translate(196, 42)" class="key color-group-4 keypos-3">
<rect rx="6" ry="6" x="-26" y="-26" width="52" height="52" class="key color-group-4"/>
<text x="0" y="0" class="key color-group-4 tap">&#x27;</text>
</g>
<g transform="translate(252, 48)" class="key color-group-4 keypos-4">
<rect rx="6" ry="6" x="-26" y="-26" width="52" height="52" class="key color-group-4"/>
<text x="0" y="0" class="key color-group-4 tap">@</text>
</g>
<g transform="translate(476, 48)" class="key color-group-4 keypos-5">
<rect rx="6" ry="6" x="-26" y="-26" width="52" height="52" class="key color-group-4"/>
<text x="0" y="0" class="key color-group-4 tap">&amp;</text>
</g>
<g transform="translate(532, 42)" class="key color-group-4 keypos-6">
<rect rx="6" ry="6" x="-26" y="-26" width="52" height="52" class="key color-group-4"/>
<text x="0" y="0" class="key color-group-4 tap">$</text>
</g>
<g transform="translate(588, 28)" class="key color-group-4 keypos-7">
<rect rx="6" ry="6" x="-26" y="-26" width="52" height="52" class="key color-group-4"/>
<text x="0" y="0" class="key color-group-4 tap">[</text>
</g>
<g transform="translate(644, 56)" class="key color-group-4 keypos-8">
<rect rx="6" ry="6" x="-26" y="-26" width="52" height="52" class="key color-group-4"/>
<text x="0" y="0" class="key color-group-4 tap">]</text>
</g>
<g transform="translate(700, 70)" class="key color-group-4 keypos-9">
<rect rx="6" ry="6" x="-26" y="-26" width="52" height="52" class="key color-group-4"/>
<text x="0" y="0" class="key color-group-4 tap">%</text>
</g>
<g transform="translate(28, 126)" class="key color-group-4 keypos-10">
<rect rx="6" ry="6" x="-26" y="-26" width="52" height="52" class="key color-group-4"/>
<text x="0" y="0" class="key color-group-4 tap">!</text>
</g>
<g transform="translate(84, 112)" class="key color-group-4 keypos-11">
<rect rx="6" ry="6" x="-26" y="-26" width="52" height="52" class="key color-group-4"/>
<text x="0" y="0" class="key color-group-4 tap">=</text>
</g>
<g transform="translate(140, 84)" class="key color-group-4 keypos-12">
<rect rx="6" ry="6" x="-26" y="-26" width="52" height="52" class="key color-group-4"/>
<text x="0" y="0" class="key color-group-4 tap">+</text>
</g>
<g transform="translate(196, 98)" class="key color-group-4 keypos-13">
<rect rx="6" ry="6" x="-26" y="-26" width="52" height="52" class="key color-group-4"/>
<text x="0" y="0" class="key color-group-4 tap">-</text>
</g>
<g transform="translate(252, 104)" class="key color-group-4 keypos-14">
<rect rx="6" ry="6" x="-26" y="-26" width="52" height="52" class="key color-group-4"/>
<text x="0" y="0" class="key color-group-4 tap">#</text>
</g>
<g transform="translate(476, 104)" class="key color-group-4 keypos-15">
<rect rx="6" ry="6" x="-26" y="-26" width="52" height="52" class="key color-group-4"/>
<text x="0" y="0" class="key color-group-4 tap">
<tspan x="0" dy="-0.6em">Sft+</tspan><tspan x="0" dy="1.2em">NUBS</tspan>
</text>
</g>
<g transform="translate(532, 98)" class="key color-group-4 keypos-16">
<rect rx="6" ry="6" x="-26" y="-26" width="52" height="52" class="key color-group-4"/>
<text x="0" y="0" class="key color-group-4 tap">:</text>
</g>
<g transform="translate(588, 84)" class="key color-group-4 keypos-17">
<rect rx="6" ry="6" x="-26" y="-26" width="52" height="52" class="key color-group-4"/>
<text x="0" y="0" class="key color-group-4 tap">{</text>
</g>
<g transform="translate(644, 112)" class="key color-group-4 keypos-18">
<rect rx="6" ry="6" x="-26" y="-26" width="52" height="52" class="key color-group-4"/>
<text x="0" y="0" class="key color-group-4 tap">}</text>
</g>
<g transform="translate(700, 126)" class="key color-group-4 keypos-19">
<rect rx="6" ry="6" x="-26" y="-26" width="52" height="52" class="key color-group-4"/>
<text x="0" y="0" class="key color-group-4 tap">?</text>
</g>
<g transform="translate(28, 182)" class="key color-group-4 keypos-20">
<rect rx="6" ry="6" x="-26" y="-26" width="52" height="52" class="key color-group-4"/>
<text x="0" y="0" class="key color-group-4 tap">NUBS</text>
</g>
<g transform="translate(84, 168)" class="key color-group-4 keypos-21">
<rect rx="6" ry="6" x="-26" y="-26" width="52" height="52" class="key color-group-4"/>
<text x="0" y="0" class="key color-group-4 tap">^</text>
</g>
<g transform="translate(140, 140)" class="key color-group-4 keypos-22">
<rect rx="6" ry="6" x="-26" y="-26" width="52" height="52" class="key color-group-4"/>
<text x="0" y="0" class="key color-group-4 tap">*</text>
</g>
<g transform="translate(196, 154)" class="key color-group-4 keypos-23">
<rect rx="6" ry="6" x="-26" y="-26" width="52" height="52" class="key color-group-4"/>
<text x="0" y="0" class="key color-group-4 tap">/</text>
</g>
<g transform="translate(252, 160)" class="key color-group-4 keypos-24">
<rect rx="6" ry="6" x="-26" y="-26" width="52" height="52" class="key color-group-4"/>
<text x="0" y="0" class="key color-group-4 tap">&quot;</text>
</g>
<g transform="translate(476, 160)" class="key color-group-4 keypos-25">
<rect rx="6" ry="6" x="-26" y="-26" width="52" height="52" class="key color-group-4"/>
<text x="0" y="0" class="key color-group-4 tap">_</text>
</g>
<g transform="translate(532, 154)" class="key color-group-4 keypos-26">
<rect rx="6" ry="6" x="-26" y="-26" width="52" height="52" class="key color-group-4"/>
<text x="0" y="0" class="key color-group-4 tap">;</text>
</g>
<g transform="translate(588, 140)" class="key color-group-4 keypos-27">
<rect rx="6" ry="6" x="-26" y="-26" width="52" height="52" class="key color-group-4"/>
<text x="0" y="0" class="key color-group-4 tap">{</text>
</g>
<g transform="translate(644, 168)" class="key color-group-4 keypos-28">
<rect rx="6" ry="6" x="-26" y="-26" width="52" height="52" class="key color-group-4"/>
<text x="0" y="0" class="key color-group-4 tap">}</text>
</g>
<g transform="translate(700, 182)" class="key color-group-4 keypos-29">
<rect rx="6" ry="6" x="-26" y="-26" width="52" height="52" class="key color-group-4"/>
<text x="0" y="0" class="key color-group-4 tap">|</text>
</g>
<g transform="translate(196, 210)" class="key trans keypos-30">
<rect rx="6" ry="6" x="-26" y="-26" width="52" height="52" class="key trans"/>
<text x="0" y="0" class="key trans tap">▽</text>
</g>
<g transform="translate(252, 216)" class="key trans keypos-31">
<rect rx="6" ry="6" x="-26" y="-26" width="52" height="52" class="key trans"/>
<text x="0" y="0" class="key trans tap">▽</text>
</g>
<g transform="translate(308, 222)" class="key trans keypos-32">
<rect rx="6" ry="6" x="-26" y="-26" width="52" height="52" class="key trans"/>
<text x="0" y="0" class="key trans tap">▽</text>
</g>
<g transform="translate(420, 222)" class="key trans keypos-33">
<rect rx="6" ry="6" x="-26" y="-26" width="52" height="52" class="key trans"/>
<text x="0" y="0" class="key trans tap">▽</text>
</g>
<g transform="translate(476, 216)" class="key trans keypos-34">
<rect rx="6" ry="6" x="-26" y="-26" width="52" height="52" class="key trans"/>
<text x="0" y="0" class="key trans tap">▽</text>
</g>
<g transform="translate(532, 210)" class="key trans keypos-35">
<rect rx="6" ry="6" x="-26" y="-26" width="52" height="52" class="key trans"/>
<text x="0" y="0" class="key trans tap">▽</text>
</g>
</g>
</g>
<g transform="translate(30, 613)" class="layer-SYMBOLS">
<text x="0" y="28" class="label" id="SYMBOLS">SYMBOLS:</text>
<g transform="translate(0, 56)">
<g transform="translate(28, 70)" class="key keypos-0">
<rect rx="6" ry="6" x="-26" y="-26" width="52" height="52" class="key"/>
<text x="0" y="0" class="key tap">ESC</text>
</g>
<g transform="translate(84, 56)" class="key keypos-1">
<rect rx="6" ry="6" x="-26" y="-26" width="52" height="52" class="key"/>
</g>
<g transform="translate(140, 28)" class="key keypos-2">
<rect rx="6" ry="6" x="-26" y="-26" width="52" height="52" class="key"/>
</g>
<g transform="translate(196, 42)" class="key keypos-3">
<rect rx="6" ry="6" x="-26" y="-26" width="52" height="52" class="key"/>
</g>
<g transform="translate(252, 48)" class="key keypos-4">
<rect rx="6" ry="6" x="-26" y="-26" width="52" height="52" class="key"/>
</g>
<g transform="translate(476, 48)" class="key keypos-5">
<rect rx="6" ry="6" x="-26" y="-26" width="52" height="52" class="key"/>
<text x="0" y="0" class="key tap">PGUP</text>
</g>
<g transform="translate(532, 42)" class="key keypos-6">
<rect rx="6" ry="6" x="-26" y="-26" width="52" height="52" class="key"/>
<text x="0" y="0" class="key tap">HOME</text>
</g>
<g transform="translate(588, 28)" class="key keypos-7">
<rect rx="6" ry="6" x="-26" y="-26" width="52" height="52" class="key"/>
<text x="0" y="0" class="key tap">UP</text>
</g>
<g transform="translate(644, 56)" class="key keypos-8">
<rect rx="6" ry="6" x="-26" y="-26" width="52" height="52" class="key"/>
<text x="0" y="0" class="key tap">END</text>
</g>
<g transform="translate(700, 70)" class="key keypos-9">
<rect rx="6" ry="6" x="-26" y="-26" width="52" height="52" class="key"/>
<text x="0" y="0" class="key tap">BSPC</text>
</g>
<g transform="translate(28, 126)" class="key keypos-10">
<rect rx="6" ry="6" x="-26" y="-26" width="52" height="52" class="key"/>
<text x="0" y="0" class="key tap">TAB</text>
</g>
<g transform="translate(84, 112)" class="key keypos-11">
<rect rx="6" ry="6" x="-26" y="-26" width="52" height="52" class="key"/>
<text x="0" y="0" class="key tap">LGUI</text>
<text x="0" y="24" class="key hold">sticky</text>
</g>
<g transform="translate(140, 84)" class="key keypos-12">
<rect rx="6" ry="6" x="-26" y="-26" width="52" height="52" class="key"/>
<text x="0" y="0" class="key tap">LALT</text>
<text x="0" y="24" class="key hold">sticky</text>
</g>
<g transform="translate(196, 98)" class="key keypos-13">
<rect rx="6" ry="6" x="-26" y="-26" width="52" height="52" class="key"/>
<text x="0" y="0" class="key tap">LCTL</text>
<text x="0" y="24" class="key hold">sticky</text>
</g>
<g transform="translate(252, 104)" class="key keypos-14">
<rect rx="6" ry="6" x="-26" y="-26" width="52" height="52" class="key"/>
<text x="0" y="0" class="key tap">LSFT</text>
<text x="0" y="24" class="key hold">sticky</text>
</g>
<g transform="translate(476, 104)" class="key keypos-15">
<rect rx="6" ry="6" x="-26" y="-26" width="52" height="52" class="key"/>
<text x="0" y="0" class="key tap">PGDN</text>
</g>
<g transform="translate(532, 98)" class="key keypos-16">
<rect rx="6" ry="6" x="-26" y="-26" width="52" height="52" class="key"/>
<text x="0" y="0" class="key tap">LEFT</text>
</g>
<g transform="translate(588, 84)" class="key keypos-17">
<rect rx="6" ry="6" x="-26" y="-26" width="52" height="52" class="key"/>
<text x="0" y="0" class="key tap">DOWN</text>
</g>
<g transform="translate(644, 112)" class="key keypos-18">
<rect rx="6" ry="6" x="-26" y="-26" width="52" height="52" class="key"/>
<text x="0" y="0" class="key tap">RGHT</text>
</g>
<g transform="translate(700, 126)" class="key keypos-19">
<rect rx="6" ry="6" x="-26" y="-26" width="52" height="52" class="key"/>
<text x="0" y="0" class="key tap">DEL</text>
</g>
<g transform="translate(28, 182)" class="key keypos-20">
<rect rx="6" ry="6" x="-26" y="-26" width="52" height="52" class="key"/>
<text x="0" y="0" class="key tap">
<tspan x="0" dy="-0.6em">Ctl+</tspan><tspan x="0" dy="1.2em">Z</tspan>
</text>
</g>
<g transform="translate(84, 168)" class="key keypos-21">
<rect rx="6" ry="6" x="-26" y="-26" width="52" height="52" class="key"/>
<text x="0" y="0" class="key tap">
<tspan x="0" dy="-0.6em">Ctl+</tspan><tspan x="0" dy="1.2em">X</tspan>
</text>
</g>
<g transform="translate(140, 140)" class="key keypos-22">
<rect rx="6" ry="6" x="-26" y="-26" width="52" height="52" class="key"/>
<text x="0" y="0" class="key tap">
<tspan x="0" dy="-0.6em">Ctl+</tspan><tspan x="0" dy="1.2em">C</tspan>
</text>
</g>
<g transform="translate(196, 154)" class="key keypos-23">
<rect rx="6" ry="6" x="-26" y="-26" width="52" height="52" class="key"/>
<text x="0" y="0" class="key tap">
<tspan x="0" dy="-0.6em">Ctl+</tspan><tspan x="0" dy="1.2em">V</tspan>
</text>
</g>
<g transform="translate(252, 160)" class="key keypos-24">
<rect rx="6" ry="6" x="-26" y="-26" width="52" height="52" class="key"/>
<text x="0" y="0" class="key tap">
<tspan x="0" dy="-0.6em">Ctl+</tspan><tspan x="0" dy="1.2em">B</tspan>
</text>
</g>
<g transform="translate(476, 160)" class="key keypos-25">
<rect rx="6" ry="6" x="-26" y="-26" width="52" height="52" class="key"/>
</g>
<g transform="translate(532, 154)" class="key keypos-26">
<rect rx="6" ry="6" x="-26" y="-26" width="52" height="52" class="key"/>
</g>
<g transform="translate(588, 140)" class="key keypos-27">
<rect rx="6" ry="6" x="-26" y="-26" width="52" height="52" class="key"/>
</g>
<g transform="translate(644, 168)" class="key keypos-28">
<rect rx="6" ry="6" x="-26" y="-26" width="52" height="52" class="key"/>
</g>
<g transform="translate(700, 182)" class="key keypos-29">
<rect rx="6" ry="6" x="-26" y="-26" width="52" height="52" class="key"/>
<text x="0" y="0" class="key tap">ENT</text>
</g>
<g transform="translate(196, 210)" class="key trans keypos-30">
<rect rx="6" ry="6" x="-26" y="-26" width="52" height="52" class="key trans"/>
<text x="0" y="0" class="key trans tap">▽</text>
</g>
<g transform="translate(252, 216)" class="key trans keypos-31">
<rect rx="6" ry="6" x="-26" y="-26" width="52" height="52" class="key trans"/>
<text x="0" y="0" class="key trans tap">▽</text>
</g>
<g transform="translate(308, 222)" class="key trans keypos-32">
<rect rx="6" ry="6" x="-26" y="-26" width="52" height="52" class="key trans"/>
<text x="0" y="0" class="key trans tap">▽</text>
</g>
<g transform="translate(420, 222)" class="key trans keypos-33">
<rect rx="6" ry="6" x="-26" y="-26" width="52" height="52" class="key trans"/>
<text x="0" y="0" class="key trans tap">▽</text>
</g>
<g transform="translate(476, 216)" class="key trans keypos-34">
<rect rx="6" ry="6" x="-26" y="-26" width="52" height="52" class="key trans"/>
<text x="0" y="0" class="key trans tap">▽</text>
</g>
<g transform="translate(532, 210)" class="key trans keypos-35">
<rect rx="6" ry="6" x="-26" y="-26" width="52" height="52" class="key trans"/>
<text x="0" y="0" class="key trans tap">▽</text>
</g>
</g>
</g>
<g transform="translate(30, 919)" class="layer-ADJUST">
<text x="0" y="28" class="label" id="ADJUST">ADJUST:</text>
<g transform="translate(0, 56)">
<g transform="translate(28, 70)" class="key keypos-0">
<rect rx="6" ry="6" x="-26" y="-26" width="52" height="52" class="key"/>
</g>
<g transform="translate(84, 56)" class="key keypos-1">
<rect rx="6" ry="6" x="-26" y="-26" width="52" height="52" class="key"/>
</g>
<g transform="translate(140, 28)" class="key keypos-2">
<rect rx="6" ry="6" x="-26" y="-26" width="52" height="52" class="key"/>
</g>
<g transform="translate(196, 42)" class="key keypos-3">
<rect rx="6" ry="6" x="-26" y="-26" width="52" height="52" class="key"/>
</g>
<g transform="translate(252, 48)" class="key keypos-4">
<rect rx="6" ry="6" x="-26" y="-26" width="52" height="52" class="key"/>
</g>
<g transform="translate(476, 48)" class="key keypos-5">
<rect rx="6" ry="6" x="-26" y="-26" width="52" height="52" class="key"/>
<text x="0" y="0" class="key tap">F1</text>
</g>
<g transform="translate(532, 42)" class="key keypos-6">
<rect rx="6" ry="6" x="-26" y="-26" width="52" height="52" class="key"/>
<text x="0" y="0" class="key tap">F2</text>
</g>
<g transform="translate(588, 28)" class="key keypos-7">
<rect rx="6" ry="6" x="-26" y="-26" width="52" height="52" class="key"/>
<text x="0" y="0" class="key tap">F3</text>
</g>
<g transform="translate(644, 56)" class="key keypos-8">
<rect rx="6" ry="6" x="-26" y="-26" width="52" height="52" class="key"/>
<text x="0" y="0" class="key tap">F4</text>
</g>
<g transform="translate(700, 70)" class="key keypos-9">
<rect rx="6" ry="6" x="-26" y="-26" width="52" height="52" class="key"/>
</g>
<g transform="translate(28, 126)" class="key keypos-10">
<rect rx="6" ry="6" x="-26" y="-26" width="52" height="52" class="key"/>
<text x="0" y="0" class="key tap">
<tspan x="0" dy="-0.6em">CL</tspan><tspan x="0" dy="1.2em">TOGG</tspan>
</text>
</g>
<g transform="translate(84, 112)" class="key keypos-11">
<rect rx="6" ry="6" x="-26" y="-26" width="52" height="52" class="key"/>
<text x="0" y="0" class="key tap">LGUI</text>
<text x="0" y="24" class="key hold">sticky</text>
</g>
<g transform="translate(140, 84)" class="key keypos-12">
<rect rx="6" ry="6" x="-26" y="-26" width="52" height="52" class="key"/>
<text x="0" y="0" class="key tap">LALT</text>
<text x="0" y="24" class="key hold">sticky</text>
</g>
<g transform="translate(196, 98)" class="key keypos-13">
<rect rx="6" ry="6" x="-26" y="-26" width="52" height="52" class="key"/>
<text x="0" y="0" class="key tap">LCTL</text>
<text x="0" y="24" class="key hold">sticky</text>
</g>
<g transform="translate(252, 104)" class="key keypos-14">
<rect rx="6" ry="6" x="-26" y="-26" width="52" height="52" class="key"/>
<text x="0" y="0" class="key tap">LSFT</text>
<text x="0" y="24" class="key hold">sticky</text>
</g>
<g transform="translate(476, 104)" class="key keypos-15">
<rect rx="6" ry="6" x="-26" y="-26" width="52" height="52" class="key"/>
<text x="0" y="0" class="key tap">F5</text>
</g>
<g transform="translate(532, 98)" class="key keypos-16">
<rect rx="6" ry="6" x="-26" y="-26" width="52" height="52" class="key"/>
<text x="0" y="0" class="key tap">F6</text>
</g>
<g transform="translate(588, 84)" class="key keypos-17">
<rect rx="6" ry="6" x="-26" y="-26" width="52" height="52" class="key"/>
<text x="0" y="0" class="key tap">F7</text>
</g>
<g transform="translate(644, 112)" class="key keypos-18">
<rect rx="6" ry="6" x="-26" y="-26" width="52" height="52" class="key"/>
<text x="0" y="0" class="key tap">F8</text>
</g>
<g transform="translate(700, 126)" class="key keypos-19">
<rect rx="6" ry="6" x="-26" y="-26" width="52" height="52" class="key"/>
</g>
<g transform="translate(28, 182)" class="key keypos-20">
<rect rx="6" ry="6" x="-26" y="-26" width="52" height="52" class="key"/>
</g>
<g transform="translate(84, 168)" class="key keypos-21">
<rect rx="6" ry="6" x="-26" y="-26" width="52" height="52" class="key"/>
</g>
<g transform="translate(140, 140)" class="key keypos-22">
<rect rx="6" ry="6" x="-26" y="-26" width="52" height="52" class="key"/>
</g>
<g transform="translate(196, 154)" class="key keypos-23">
<rect rx="6" ry="6" x="-26" y="-26" width="52" height="52" class="key"/>
</g>
<g transform="translate(252, 160)" class="key keypos-24">
<rect rx="6" ry="6" x="-26" y="-26" width="52" height="52" class="key"/>
</g>
<g transform="translate(476, 160)" class="key keypos-25">
<rect rx="6" ry="6" x="-26" y="-26" width="52" height="52" class="key"/>
<text x="0" y="0" class="key tap">F9</text>
</g>
<g transform="translate(532, 154)" class="key keypos-26">
<rect rx="6" ry="6" x="-26" y="-26" width="52" height="52" class="key"/>
<text x="0" y="0" class="key tap">F10</text>
</g>
<g transform="translate(588, 140)" class="key keypos-27">
<rect rx="6" ry="6" x="-26" y="-26" width="52" height="52" class="key"/>
<text x="0" y="0" class="key tap">F11</text>
</g>
<g transform="translate(644, 168)" class="key keypos-28">
<rect rx="6" ry="6" x="-26" y="-26" width="52" height="52" class="key"/>
<text x="0" y="0" class="key tap">F12</text>
</g>
<g transform="translate(700, 182)" class="key keypos-29">
<rect rx="6" ry="6" x="-26" y="-26" width="52" height="52" class="key"/>
</g>
<g transform="translate(196, 210)" class="key trans keypos-30">
<rect rx="6" ry="6" x="-26" y="-26" width="52" height="52" class="key trans"/>
<text x="0" y="0" class="key trans tap">▽</text>
</g>
<g transform="translate(252, 216)" class="key trans keypos-31">
<rect rx="6" ry="6" x="-26" y="-26" width="52" height="52" class="key trans"/>
<text x="0" y="0" class="key trans tap">▽</text>
</g>
<g transform="translate(308, 222)" class="key trans keypos-32">
<rect rx="6" ry="6" x="-26" y="-26" width="52" height="52" class="key trans"/>
<text x="0" y="0" class="key trans tap">▽</text>
</g>
<g transform="translate(420, 222)" class="key trans keypos-33">
<rect rx="6" ry="6" x="-26" y="-26" width="52" height="52" class="key trans"/>
<text x="0" y="0" class="key trans tap">▽</text>
</g>
<g transform="translate(476, 216)" class="key trans keypos-34">
<rect rx="6" ry="6" x="-26" y="-26" width="52" height="52" class="key trans"/>
<text x="0" y="0" class="key trans tap">▽</text>
</g>
<g transform="translate(532, 210)" class="key trans keypos-35">
<rect rx="6" ry="6" x="-26" y="-26" width="52" height="52" class="key trans"/>
<text x="0" y="0" class="key trans tap">▽</text>
</g>
</g>
</g>
<g transform="translate(30, 1225)" class="layer-NUMPAD">
<text x="0" y="28" class="label" id="NUMPAD">NUMPAD:</text>
<g transform="translate(0, 56)">
<g transform="translate(28, 70)" class="key keypos-0">
<rect rx="6" ry="6" x="-26" y="-26" width="52" height="52" class="key"/>
</g>
<g transform="translate(84, 56)" class="key keypos-1">
<rect rx="6" ry="6" x="-26" y="-26" width="52" height="52" class="key"/>
</g>
<g transform="translate(140, 28)" class="key keypos-2">
<rect rx="6" ry="6" x="-26" y="-26" width="52" height="52" class="key"/>
</g>
<g transform="translate(196, 42)" class="key keypos-3">
<rect rx="6" ry="6" x="-26" y="-26" width="52" height="52" class="key"/>
</g>
<g transform="translate(252, 48)" class="key keypos-4">
<rect rx="6" ry="6" x="-26" y="-26" width="52" height="52" class="key"/>
</g>
<g transform="translate(476, 48)" class="key keypos-5">
<rect rx="6" ry="6" x="-26" y="-26" width="52" height="52" class="key"/>
</g>
<g transform="translate(532, 42)" class="key color-group-1 keypos-6">
<rect rx="6" ry="6" x="-26" y="-26" width="52" height="52" class="key color-group-1"/>
<text x="0" y="0" class="key color-group-1 tap">7</text>
</g>
<g transform="translate(588, 28)" class="key color-group-1 keypos-7">
<rect rx="6" ry="6" x="-26" y="-26" width="52" height="52" class="key color-group-1"/>
<text x="0" y="0" class="key color-group-1 tap">8</text>
</g>
<g transform="translate(644, 56)" class="key color-group-1 keypos-8">
<rect rx="6" ry="6" x="-26" y="-26" width="52" height="52" class="key color-group-1"/>
<text x="0" y="0" class="key color-group-1 tap">9</text>
</g>
<g transform="translate(700, 70)" class="key keypos-9">
<rect rx="6" ry="6" x="-26" y="-26" width="52" height="52" class="key"/>
</g>
<g transform="translate(28, 126)" class="key keypos-10">
<rect rx="6" ry="6" x="-26" y="-26" width="52" height="52" class="key"/>
</g>
<g transform="translate(84, 112)" class="key keypos-11">
<rect rx="6" ry="6" x="-26" y="-26" width="52" height="52" class="key"/>
<text x="0" y="0" class="key tap">LGUI</text>
<text x="0" y="24" class="key hold">sticky</text>
</g>
<g transform="translate(140, 84)" class="key keypos-12">
<rect rx="6" ry="6" x="-26" y="-26" width="52" height="52" class="key"/>
<text x="0" y="0" class="key tap">LALT</text>
<text x="0" y="24" class="key hold">sticky</text>
</g>
<g transform="translate(196, 98)" class="key keypos-13">
<rect rx="6" ry="6" x="-26" y="-26" width="52" height="52" class="key"/>
<text x="0" y="0" class="key tap">LCTL</text>
<text x="0" y="24" class="key hold">sticky</text>
</g>
<g transform="translate(252, 104)" class="key keypos-14">
<rect rx="6" ry="6" x="-26" y="-26" width="52" height="52" class="key"/>
<text x="0" y="0" class="key tap">LSFT</text>
<text x="0" y="24" class="key hold">sticky</text>
</g>
<g transform="translate(476, 104)" class="key color-group-3 keypos-15">
<rect rx="6" ry="6" x="-26" y="-26" width="52" height="52" class="key color-group-3"/>
<text x="0" y="0" class="key color-group-3 tap">.</text>
</g>
<g transform="translate(532, 98)" class="key color-group-1 keypos-16">
<rect rx="6" ry="6" x="-26" y="-26" width="52" height="52" class="key color-group-1"/>
<text x="0" y="0" class="key color-group-1 tap">4</text>
</g>
<g transform="translate(588, 84)" class="key color-group-1 keypos-17">
<rect rx="6" ry="6" x="-26" y="-26" width="52" height="52" class="key color-group-1"/>
<text x="0" y="0" class="key color-group-1 tap">5</text>
</g>
<g transform="translate(644, 112)" class="key color-group-1 keypos-18">
<rect rx="6" ry="6" x="-26" y="-26" width="52" height="52" class="key color-group-1"/>
<text x="0" y="0" class="key color-group-1 tap">6</text>
</g>
<g transform="translate(700, 126)" class="key keypos-19">
<rect rx="6" ry="6" x="-26" y="-26" width="52" height="52" class="key"/>
</g>
<g transform="translate(28, 182)" class="key keypos-20">
<rect rx="6" ry="6" x="-26" y="-26" width="52" height="52" class="key"/>
</g>
<g transform="translate(84, 168)" class="key keypos-21">
<rect rx="6" ry="6" x="-26" y="-26" width="52" height="52" class="key"/>
</g>
<g transform="translate(140, 140)" class="key keypos-22">
<rect rx="6" ry="6" x="-26" y="-26" width="52" height="52" class="key"/>
</g>
<g transform="translate(196, 154)" class="key keypos-23">
<rect rx="6" ry="6" x="-26" y="-26" width="52" height="52" class="key"/>
</g>
<g transform="translate(252, 160)" class="key keypos-24">
<rect rx="6" ry="6" x="-26" y="-26" width="52" height="52" class="key"/>
</g>
<g transform="translate(476, 160)" class="key color-group-1 keypos-25">
<rect rx="6" ry="6" x="-26" y="-26" width="52" height="52" class="key color-group-1"/>
<text x="0" y="0" class="key color-group-1 tap">0</text>
</g>
<g transform="translate(532, 154)" class="key color-group-1 keypos-26">
<rect rx="6" ry="6" x="-26" y="-26" width="52" height="52" class="key color-group-1"/>
<text x="0" y="0" class="key color-group-1 tap">1</text>
</g>
<g transform="translate(588, 140)" class="key color-group-1 keypos-27">
<rect rx="6" ry="6" x="-26" y="-26" width="52" height="52" class="key color-group-1"/>
<text x="0" y="0" class="key color-group-1 tap">2</text>
</g>
<g transform="translate(644, 168)" class="key color-group-1 keypos-28">
<rect rx="6" ry="6" x="-26" y="-26" width="52" height="52" class="key color-group-1"/>
<text x="0" y="0" class="key color-group-1 tap">3</text>
</g>
<g transform="translate(700, 182)" class="key keypos-29">
<rect rx="6" ry="6" x="-26" y="-26" width="52" height="52" class="key"/>
</g>
<g transform="translate(196, 210)" class="key trans keypos-30">
<rect rx="6" ry="6" x="-26" y="-26" width="52" height="52" class="key trans"/>
<text x="0" y="0" class="key trans tap">▽</text>
</g>
<g transform="translate(252, 216)" class="key trans keypos-31">
<rect rx="6" ry="6" x="-26" y="-26" width="52" height="52" class="key trans"/>
<text x="0" y="0" class="key trans tap">▽</text>
</g>
<g transform="translate(308, 222)" class="key trans keypos-32">
<rect rx="6" ry="6" x="-26" y="-26" width="52" height="52" class="key trans"/>
<text x="0" y="0" class="key trans tap">▽</text>
</g>
<g transform="translate(420, 222)" class="key trans keypos-33">
<rect rx="6" ry="6" x="-26" y="-26" width="52" height="52" class="key trans"/>
<text x="0" y="0" class="key trans tap">▽</text>
</g>
<g transform="translate(476, 216)" class="key trans keypos-34">
<rect rx="6" ry="6" x="-26" y="-26" width="52" height="52" class="key trans"/>
<text x="0" y="0" class="key trans tap">▽</text>
</g>
<g transform="translate(532, 210)" class="key trans keypos-35">
<rect rx="6" ry="6" x="-26" y="-26" width="52" height="52" class="key trans"/>
<text x="0" y="0" class="key trans tap">▽</text>
</g>
</g>
</g>
<g transform="translate(30, 1532)" class="layer-MOUSE">
<text x="0" y="28" class="label" id="MOUSE">MOUSE:</text>
<g transform="translate(0, 56)">
<g transform="translate(28, 70)" class="key keypos-0">
<rect rx="6" ry="6" x="-26" y="-26" width="52" height="52" class="key"/>
</g>
<g transform="translate(84, 56)" class="key keypos-1">
<rect rx="6" ry="6" x="-26" y="-26" width="52" height="52" class="key"/>
</g>
<g transform="translate(140, 28)" class="key keypos-2">
<rect rx="6" ry="6" x="-26" y="-26" width="52" height="52" class="key"/>
</g>
<g transform="translate(196, 42)" class="key keypos-3">
<rect rx="6" ry="6" x="-26" y="-26" width="52" height="52" class="key"/>
</g>
<g transform="translate(252, 48)" class="key keypos-4">
<rect rx="6" ry="6" x="-26" y="-26" width="52" height="52" class="key"/>
<text x="0" y="0" class="key tap">
<tspan x="0" dy="-1.2em">QK</tspan><tspan x="0" dy="1.2em">MOUSE</tspan><tspan x="0" dy="1.2em">…</tspan>
</text>
</g>
<g transform="translate(476, 48)" class="key keypos-5">
<rect rx="6" ry="6" x="-26" y="-26" width="52" height="52" class="key"/>
</g>
<g transform="translate(532, 42)" class="key keypos-6">
<rect rx="6" ry="6" x="-26" y="-26" width="52" height="52" class="key"/>
</g>
<g transform="translate(588, 28)" class="key keypos-7">
<rect rx="6" ry="6" x="-26" y="-26" width="52" height="52" class="key"/>
</g>
<g transform="translate(644, 56)" class="key keypos-8">
<rect rx="6" ry="6" x="-26" y="-26" width="52" height="52" class="key"/>
</g>
<g transform="translate(700, 70)" class="key keypos-9">
<rect rx="6" ry="6" x="-26" y="-26" width="52" height="52" class="key"/>
</g>
<g transform="translate(28, 126)" class="key keypos-10">
<rect rx="6" ry="6" x="-26" y="-26" width="52" height="52" class="key"/>
</g>
<g transform="translate(84, 112)" class="key keypos-11">
<rect rx="6" ry="6" x="-26" y="-26" width="52" height="52" class="key"/>
<text x="0" y="0" class="key tap">LGUI</text>
<text x="0" y="24" class="key hold">sticky</text>
</g>
<g transform="translate(140, 84)" class="key keypos-12">
<rect rx="6" ry="6" x="-26" y="-26" width="52" height="52" class="key"/>
<text x="0" y="0" class="key tap">LALT</text>
<text x="0" y="24" class="key hold">sticky</text>
</g>
<g transform="translate(196, 98)" class="key keypos-13">
<rect rx="6" ry="6" x="-26" y="-26" width="52" height="52" class="key"/>
<text x="0" y="0" class="key tap">LCTL</text>
<text x="0" y="24" class="key hold">sticky</text>
</g>
<g transform="translate(252, 104)" class="key keypos-14">
<rect rx="6" ry="6" x="-26" y="-26" width="52" height="52" class="key"/>
<text x="0" y="0" class="key tap">LSFT</text>
<text x="0" y="24" class="key hold">sticky</text>
</g>
<g transform="translate(476, 104)" class="key keypos-15">
<rect rx="6" ry="6" x="-26" y="-26" width="52" height="52" class="key"/>
</g>
<g transform="translate(532, 98)" class="key keypos-16">
<rect rx="6" ry="6" x="-26" y="-26" width="52" height="52" class="key"/>
</g>
<g transform="translate(588, 84)" class="key keypos-17">
<rect rx="6" ry="6" x="-26" y="-26" width="52" height="52" class="key"/>
</g>
<g transform="translate(644, 112)" class="key keypos-18">
<rect rx="6" ry="6" x="-26" y="-26" width="52" height="52" class="key"/>
</g>
<g transform="translate(700, 126)" class="key keypos-19">
<rect rx="6" ry="6" x="-26" y="-26" width="52" height="52" class="key"/>
</g>
<g transform="translate(28, 182)" class="key keypos-20">
<rect rx="6" ry="6" x="-26" y="-26" width="52" height="52" class="key"/>
</g>
<g transform="translate(84, 168)" class="key keypos-21">
<rect rx="6" ry="6" x="-26" y="-26" width="52" height="52" class="key"/>
</g>
<g transform="translate(140, 140)" class="key keypos-22">
<rect rx="6" ry="6" x="-26" y="-26" width="52" height="52" class="key"/>
</g>
<g transform="translate(196, 154)" class="key keypos-23">
<rect rx="6" ry="6" x="-26" y="-26" width="52" height="52" class="key"/>
</g>
<g transform="translate(252, 160)" class="key keypos-24">
<rect rx="6" ry="6" x="-26" y="-26" width="52" height="52" class="key"/>
<text x="0" y="0" class="key tap">
<tspan x="0" dy="-1.2em">QK</tspan><tspan x="0" dy="1.2em">MOUSE</tspan><tspan x="0" dy="1.2em">…</tspan>
</text>
</g>
<g transform="translate(476, 160)" class="key keypos-25">
<rect rx="6" ry="6" x="-26" y="-26" width="52" height="52" class="key"/>
</g>
<g transform="translate(532, 154)" class="key keypos-26">
<rect rx="6" ry="6" x="-26" y="-26" width="52" height="52" class="key"/>
</g>
<g transform="translate(588, 140)" class="key keypos-27">
<rect rx="6" ry="6" x="-26" y="-26" width="52" height="52" class="key"/>
</g>
<g transform="translate(644, 168)" class="key keypos-28">
<rect rx="6" ry="6" x="-26" y="-26" width="52" height="52" class="key"/>
</g>
<g transform="translate(700, 182)" class="key keypos-29">
<rect rx="6" ry="6" x="-26" y="-26" width="52" height="52" class="key"/>
</g>
<g transform="translate(196, 210)" class="key trans keypos-30">
<rect rx="6" ry="6" x="-26" y="-26" width="52" height="52" class="key trans"/>
<text x="0" y="0" class="key trans tap">▽</text>
</g>
<g transform="translate(252, 216)" class="key keypos-31">
<rect rx="6" ry="6" x="-26" y="-26" width="52" height="52" class="key"/>
<text x="0" y="0" class="key tap">
<tspan x="0" dy="-0.6em">MS</tspan><tspan x="0" dy="1.2em">BTN1</tspan>
</text>
</g>
<g transform="translate(308, 222)" class="key keypos-32">
<rect rx="6" ry="6" x="-26" y="-26" width="52" height="52" class="key"/>
<text x="0" y="0" class="key tap">
<tspan x="0" dy="-0.6em">MS</tspan><tspan x="0" dy="1.2em">BTN2</tspan>
</text>
</g>
<g transform="translate(420, 222)" class="key trans keypos-33">
<rect rx="6" ry="6" x="-26" y="-26" width="52" height="52" class="key trans"/>
<text x="0" y="0" class="key trans tap">▽</text>
</g>
<g transform="translate(476, 216)" class="key trans keypos-34">
<rect rx="6" ry="6" x="-26" y="-26" width="52" height="52" class="key trans"/>
<text x="0" y="0" class="key trans tap">▽</text>
</g>
<g transform="translate(532, 210)" class="key trans keypos-35">
<rect rx="6" ry="6" x="-26" y="-26" width="52" height="52" class="key trans"/>
<text x="0" y="0" class="key trans tap">▽</text>
</g>
</g>
</g>
</svg>
